PsfTest-BoldItalic.ufo
<glyph name="RtParen" format="2">
  <advance width="840"/>
  <unicode hex="0029"/>
  <outline>
    <contour>
      <point x="476" y="1411" type="line"/>
      <point x="572" y="1290"/>
      <point x="616" y="1127"/>
      <point x="616" y="944" type="curve" smooth="yes"/>
      <point x="616" y="832"/>
      <point x="599" y="712"/>
      <point x="569" y="589" type="curve" smooth="yes"/>
      <point x="491" y="275"/>
      <point x="333" y="48"/>
      <point x="75" y="-198" type="curve"/>
      <point x="163" y="-406" type="line"/>
      <point x="509" y="-124"/>
      <point x="743" y="206"/>
      <point x="844" y="609" type="curve" smooth="yes"/>
      <point x="876" y="735"/>
      <point x="891" y="858"/>
      <point x="891" y="973" type="curve" smooth="yes"/>
      <point x="891" y="1252"/>
      <point x="803" y="1487"/>
      <point x="649" y="1624" type="curve"/>
    </contour>
  </outline>
</glyph>
<glyph name="Asterisk" format="2">
  <advance width="1020"/>
  <unicode hex="002A"/>
  <outline>
    <contour>
      <point x="1135" y="1478" type="line"/>
      <point x="1039" y="1412"/>
      <point x="956" y="1353"/>
      <point x="856" y="1295" type="curve"/>
      <point x="885" y="1391"/>
      <point x="915" y="1471"/>
      <point x="958" y="1584" type="curve"/>
      <point x="759" y="1584" type="line"/>
      <point x="753" y="1482"/>
      <point x="748" y="1398"/>
      <point x="730" y="1295" type="curve"/>
      <point x="658" y="1346"/>
      <point x="599" y="1394"/>
      <point x="532" y="1461" type="curve"/>
      <point x="388" y="1293" type="line"/>
      <point x="484" y="1258"/>
      <point x="575" y="1222"/>
      <point x="647" y="1184" type="curve"/>
      <point x="552" y="1141"/>
      <point x="459" y="1109"/>
      <point x="341" y="1066" type="curve"/>
      <point x="398" y="888" type="line"/>
      <point x="494" y="958"/>
      <point x="575" y="1016"/>
      <point x="674" y="1076" type="curve"/>
      <point x="641" y="973"/>
      <point x="610" y="887"/>
      <point x="566" y="785" type="curve"/>
      <point x="767" y="785" type="line"/>
      <point x="773" y="897"/>
      <point x="785" y="977"/>
      <point x="800" y="1073" type="curve"/>
      <point x="875" y="1017"/>
      <point x="929" y="971"/>
      <point x="995" y="905" type="curve"/>
      <point x="1144" y="1078" type="line"/>
      <point x="1045" y="1116"/>
      <point x="967" y="1143"/>
      <point x="886" y="1184" type="curve"/>
      <point x="984" y="1229"/>
      <point x="1075" y="1264"/>
      <point x="1190" y="1308" type="curve"/>
    </contour>
  </outline>
</glyph>
<glyph name="DigitFive" format="2">
  <advance width="1180"/>
  <unicode hex="0035"/>
  <anchor x="515" y="-100" name="L"/>
  <anchor x="922" y="1530" name="U"/>
  <outline>
    <contour>
      <point x="1330" y="1445" type="line"/>
      <point x="475" y="1445" type="line"/>
      <point x="274" y="639" type="line"/>
      <point x="410" y="686"/>
      <point x="519" y="703"/>
      <point x="625" y="703" type="curve" smooth="yes"/>
      <point x="763" y="703"/>
      <point x="867" y="630"/>
      <point x="867" y="507" type="curve" smooth="yes"/>
      <point x="867" y="318"/>
      <point x="680" y="213"/>
      <point x="503" y="213" type="curve" smooth="yes"/>
      <point x="363" y="213"/>
      <point x="255" y="260"/>
      <point x="168" y="356" type="curve"/>
      <point x="59" y="79" type="line"/>
      <point x="165" y="2"/>
      <point x="308" y="-25"/>
      <point x="483" y="-25" type="curve" smooth="yes"/>
      <point x="841" y="-25"/>
      <point x="1155" y="204"/>
      <point x="1155" y="564" type="curve" smooth="yes"/>
      <point x="1155" y="774"/>
      <point x="1007" y="921"/>
      <point x="774" y="921" type="curve" smooth="yes"/>
      <point x="712" y="921"/>
      <point x="632" y="902"/>
      <point x="595" y="886" type="curve"/>
      <point x="674" y="1203" type="line"/>
      <point x="1004" y="1203" type="line" smooth="yes"/>
      <point x="1088" y="1203"/>
      <point x="1193" y="1199"/>
      <point x="1264" y="1183" type="curve"/>
    </contour>
  </outline>
</glyph>
<glyph name="DigitSix" format="2">
  <advance width="1180"/>
  <unicode hex="0036"/>
  <anchor x="525" y="-100" name="L"/>
  <anchor x="932" y="1530" name="U"/>
  <outline>
    <contour>
      <point x="1347" y="1371" type="line"/>
      <point x="1260" y="1440"/>
      <point x="1149" y="1470"/>
      <point x="1011" y="1470" type="curve" smooth="yes"/>
      <point x="493" y="1470"/>
      <point x="181" y="971"/>
      <point x="181" y="500" type="curve" smooth="yes"/>
      <point x="181" y="188"/>
      <point x="368" y="-25"/>
      <point x="635" y="-25" type="curve" smooth="yes"/>
      <point x="954" y="-25"/>
      <point x="1207" y="192"/>
      <point x="1207" y="498" type="curve" smooth="yes"/>
      <point x="1207" y="714"/>
      <point x="1058" y="916"/>
      <point x="813" y="916" type="curve" smooth="yes"/>
      <point x="622" y="916"/>
      <point x="477" y="802"/>
      <point x="326" y="648" type="curve"/>
      <point x="363" y="525" type="line"/>
      <point x="470" y="637"/>
      <point x="595" y="703"/>
      <point x="750" y="703" type="curve" smooth="yes"/>
      <point x="882" y="703"/>
      <point x="954" y="586"/>
      <point x="954" y="466" type="curve" smooth="yes"/>
      <point x="954" y="325"/>
      <point x="828" y="208"/>
      <point x="677" y="208" type="curve" smooth="yes"/>
      <point x="526" y="208"/>
      <point x="447" y="350"/>
      <point x="447" y="533" type="curve" smooth="yes"/>
      <point x="447" y="978"/>
      <point x="738" y="1237"/>
      <point x="953" y="1237" type="curve" smooth="yes"/>
      <point x="1049" y="1237"/>
      <point x="1155" y="1204"/>
      <point x="1220" y="1119" type="curve"/>
    </contour>
  </outline>
</glyph>
<glyph name="Colon" format="2">
  <advance width="690"/>
  <unicode hex="003A"/>
  <outline>
    <contour>
      <point x="171" y="116" type="curve" smooth="yes"/>
      <point x="171" y="35"/>
      <point x="232" y="-25"/>
      <point x="318" y="-25" type="curve" smooth="yes"/>
      <point x="436" y="-25"/>
      <point x="531" y="71"/>
      <point x="531" y="181" type="curve" smooth="yes"/>
      <point x="531" y="261"/>
      <point x="472" y="322"/>
      <point x="385" y="322" type="curve" smooth="yes"/>
      <point x="268" y="322"/>
      <point x="171" y="226"/>
    </contour>
    <contour>
      <point x="319" y="710" type="curve" smooth="yes"/>
      <point x="319" y="629"/>
      <point x="380" y="569"/>
      <point x="466" y="569" type="curve" smooth="yes"/>
      <point x="584" y="569"/>
      <point x="679" y="665"/>
      <point x="679" y="775" type="curve" smooth="yes"/>
      <point x="679" y="855"/>
      <point x="620" y="916"/>
      <point x="533" y="916" type="curve" smooth="yes"/>
      <point x="416" y="916"/>
      <point x="319" y="820"/>
    </contour>
  </outline>
</glyph>
<glyph name="LtnCapA" format="2">
  <advance width="1465"/>
  <unicode hex="0041"/>
  <anchor x="1215" y="0" name="H"/>
  <anchor x="647" y="-100" name="L"/>
  <anchor x="1435" y="0" name="O"/>
  <anchor x="1054" y="1530" name="U"/>
  <outline>
    <contour>
      <point x="1055" y="0" type="line"/>
      <point x="1338" y="0" type="line"/>
      <point x="1322" y="79"/>
      <point x="1312" y="166"/>
      <point x="1295" y="351" type="curve" smooth="yes"/>
      <point x="1198" y="1445" type="line"/>
      <point x="842" y="1445" type="line"/>
      <point x="199" y="351" type="line" smooth="yes"/>
      <point x="89" y="164"/>
      <point x="37" y="80"/>
      <point x="-18" y="0" type="curve"/>
      <point x="290" y="0" type="line"/>
      <point x="487" y="351" type="line"/>
      <point x="1031" y="351" type="line"/>
    </contour>
    <contour>
      <point x="973" y="1216" type="line"/>
      <point x="1016" y="564" type="line"/>
      <point x="606" y="564" type="line"/>
    </contour>
  </outline>
</glyph>
<glyph name="LtnCapK" format="2">
  <advance width="1410"/>
  <unicode hex="004B"/>
  <anchor x="260" y="0" name="H"/>
  <anchor x="655" y="-100" name="L"/>
  <anchor x="1047" y="1530" name="U"/>
  <outline>
    <contour>
      <point x="750" y="1445" type="line"/>
      <point x="450" y="1445" type="line"/>
      <point x="444" y="1366"/>
      <point x="406" y="1210"/>
      <point x="358" y="1015" type="curve" smooth="yes"/>
      <point x="212" y="431" type="line" smooth="yes"/>
      <point x="163" y="236"/>
      <point x="123" y="79"/>
      <point x="90" y="0" type="curve"/>
      <point x="390" y="0" type="line"/>
    </contour>
    <contour>
      <point x="1244" y="1445" type="line"/>
      <point x="461" y="697" type="line"/>
      <point x="634" y="738" type="line"/>
      <point x="758" y="724" type="line"/>
      <point x="1580" y="1445" type="line"/>
    </contour>
    <contour>
      <point x="509" y="724" type="line"/>
      <point x="950" y="0" type="line"/>
      <point x="1300" y="0" type="line"/>
      <point x="738" y="801" type="line"/>
    </contour>
  </outline>
</glyph>
<glyph name="LtnCapL" format="2">
  <advance width="1110"/>
  <unicode hex="004C"/>
  <anchor x="560" y="0" name="H"/>
  <anchor x="535" y="-100" name="L"/>
  <anchor x="890" y="1200" name="R"/>
  <anchor x="942" y="1530" name="U"/>
  <outline>
    <contour>
      <point x="446" y="228" type="line"/>
      <point x="750" y="1445" type="line"/>
      <point x="450" y="1445" type="line"/>
      <point x="444" y="1366"/>
      <point x="406" y="1210"/>
      <point x="358" y="1015" type="curve" smooth="yes"/>
      <point x="212" y="431" type="line" smooth="yes"/>
      <point x="163" y="236"/>
      <point x="123" y="79"/>
      <point x="90" y="0" type="curve"/>
      <point x="1025" y="0" type="line"/>
      <point x="1085" y="243" type="line"/>
      <point x="1005" y="229"/>
      <point x="851" y="228"/>
      <point x="662" y="228" type="curve" smooth="yes"/>
    </contour>
  </outline>
</glyph>
<glyph name="LtnCapO" format="2">
  <advance width="1480"/>
  <unicode hex="004F"/>
  <anchor x="680" y="0" name="H"/>
  <anchor x="655" y="-100" name="L"/>
  <anchor x="916" y="0" name="O"/>
  <anchor x="1720" y="1200" name="R"/>
  <anchor x="1062" y="1530" name="U"/>
  <outline>
    <contour>
      <point x="754" y="218" type="curve" smooth="yes"/>
      <point x="580" y="218"/>
      <point x="471" y="345"/>
      <point x="471" y="568" type="curve" smooth="yes"/>
      <point x="471" y="922"/>
      <point x="664" y="1228"/>
      <point x="966" y="1228" type="curve" smooth="yes"/>
      <point x="1134" y="1228"/>
      <point x="1237" y="1106"/>
      <point x="1237" y="891" type="curve" smooth="yes"/>
      <point x="1237" y="540"/>
      <point x="1060" y="218"/>
    </contour>
    <contour>
      <point x="1519" y="911" type="curve" smooth="yes"/>
      <point x="1519" y="1249"/>
      <point x="1350" y="1470"/>
      <point x="1026" y="1470" type="curve" smooth="yes"/>
      <point x="510" y="1470"/>
      <point x="191" y="1010"/>
      <point x="191" y="539" type="curve" smooth="yes"/>
      <point x="191" y="199"/>
      <point x="401" y="-25"/>
      <point x="693" y="-25" type="curve" smooth="yes"/>
      <point x="1121" y="-25"/>
      <point x="1519" y="337"/>
    </contour>
  </outline>
</glyph>
<glyph name="LtnCapR" format="2">
  <advance width="1360"/>
  <unicode hex="0052"/>
  <anchor x="630" y="0" name="H"/>
  <anchor x="605" y="-100" name="L"/>
  <anchor x="982" y="1530" name="U"/>
  <outline>
    <contour>
      <point x="534" y="579" type="line"/>
      <point x="749" y="579" type="line" smooth="yes"/>
      <point x="1071" y="579"/>
      <point x="1378" y="761"/>
      <point x="1378" y="1117" type="curve" smooth="yes"/>
      <point x="1378" y="1332"/>
      <point x="1199" y="1455"/>
      <point x="932" y="1455" type="curve" smooth="yes"/>
      <point x="698" y="1455"/>
      <point x="450" y="1445"/>
      <point x="450" y="1445" type="curve"/>
      <point x="445" y="1366"/>
      <point x="400" y="1184"/>
      <point x="351" y="990" type="curve" smooth="yes"/>
      <point x="212" y="431" type="line"/>
      <point x="164" y="236"/>
      <point x="124" y="79"/>
      <point x="90" y="0" type="curve"/>
      <point x="405" y="0" type="line"/>
      <point x="410" y="77"/>
      <point x="448" y="236"/>
      <point x="497" y="431" type="curve"/>
    </contour>
    <contour>
      <point x="696" y="1228" type="line"/>
      <point x="749" y="1231"/>
      <point x="764" y="1233"/>
      <point x="842" y="1233" type="curve" smooth="yes"/>
      <point x="995" y="1233"/>
      <point x="1089" y="1167"/>
      <point x="1089" y="1060" type="curve" smooth="yes"/>
      <point x="1089" y="899"/>
      <point x="956" y="792"/>
      <point x="782" y="792" type="curve" smooth="yes"/>
      <point x="587" y="792" type="line"/>
    </contour>
    <contour>
      <point x="652" y="629" type="line"/>
      <point x="915" y="0" type="line"/>
      <point x="1270" y="0" type="line"/>
      <point x="1220" y="72"/>
      <point x="962" y="623"/>
      <point x="936" y="680" type="curve"/>
    </contour>
  </outline>
</glyph>
<glyph name="LtnCapY" format="2">
  <advance width="1344"/>
  <unicode hex="0059"/>
  <anchor x="587" y="-100" name="L"/>
  <anchor x="994" y="1530" name="U"/>
  <outline>
    <contour>
      <point x="325" y="1445" type="line"/>
      <point x="400" y="1298"/>
      <point x="438" y="1185"/>
      <point x="482" y="1054" type="curve" smooth="yes"/>
      <point x="653" y="554" type="line"/>
      <point x="868" y="668" type="line"/>
      <point x="637" y="1445" type="line"/>
    </contour>
    <contour>
      <point x="1282" y="1445" type="line"/>
      <point x="668" y="668" type="line"/>
      <point x="848" y="554" type="line"/>
      <point x="1271" y="1054" type="line" smooth="yes"/>
      <point x="1379" y="1183"/>
      <point x="1459" y="1278"/>
      <point x="1619" y="1445" type="curve"/>
    </contour>
    <contour>
      <point x="770" y="0" type="line"/>
      <point x="774" y="79"/>
      <point x="813" y="236"/>
      <point x="862" y="431" type="curve" smooth="yes"/>
      <point x="926" y="688" type="line"/>
      <point x="641" y="688" type="line"/>
      <point x="577" y="431" type="line" smooth="yes"/>
      <point x="528" y="236"/>
      <point x="488" y="79"/>
      <point x="455" y="0" type="curve"/>
    </contour>
  </outline>
</glyph>
<glyph name="LowLine" format="2">
  <advance width="1254"/>
  <unicode hex="005F"/>
  <outline>
    <contour>
      <point x="-146" y="-347" type="line"/>
      <point x="1127" y="-347" type="line"/>
      <point x="1179" y="-139" type="line"/>
      <point x="-94" y="-139" type="line"/>
    </contour>
  </outline>
</glyph>
<glyph name="LtnSmA" format="2">
  <advance width="1185"/>
  <unicode hex="0061"/>
  <anchor x="925" y="0" name="H"/>
  <anchor x="525" y="-100" name="L"/>
  <anchor x="1125" y="0" name="O"/>
  <anchor x="1335" y="1000" name="R"/>
  <anchor x="825" y="1100" name="U"/>
  <outline>
    <contour>
      <point x="1060" y="0" type="line"/>
      <point x="1054" y="44"/>
      <point x="1051" y="87"/>
      <point x="1051" y="133" type="curve" smooth="yes"/>
      <point x="1051" y="204"/>
      <point x="1059" y="280"/>
      <point x="1081" y="366" type="curve"/>
      <point x="1128" y="557"/>
      <point x="1156" y="665"/>
      <point x="1170" y="722" type="curve"/>
      <point x="1174" y="738"/>
      <point x="1176" y="754"/>
      <point x="1176" y="770" type="curve" smooth="yes"/>
      <point x="1176" y="909"/>
      <point x="1026" y="1030"/>
      <point x="791" y="1030" type="curve" smooth="yes"/>
      <point x="632" y="1030"/>
      <point x="514" y="994"/>
      <point x="389" y="940" type="curve"/>
      <point x="363" y="859"/>
      <point x="327" y="728"/>
      <point x="315" y="684" type="curve"/>
      <point x="452" y="765"/>
      <point x="565" y="808"/>
      <point x="673" y="808" type="curve" smooth="yes"/>
      <point x="809" y="808"/>
      <point x="885" y="760"/>
      <point x="885" y="709" type="curve" smooth="yes"/>
      <point x="885" y="705"/>
      <point x="884" y="700"/>
      <point x="883" y="696" type="curve" smooth="yes"/>
      <point x="872" y="653" type="line"/>
      <point x="831" y="652"/>
      <point x="669" y="643"/>
      <point x="598" y="636" type="curve" smooth="yes"/>
      <point x="367" y="614"/>
      <point x="109" y="474"/>
      <point x="109" y="236" type="curve" smooth="yes"/>
      <point x="109" y="97"/>
      <point x="215" y="-25"/>
      <point x="388" y="-25" type="curve" smooth="yes"/>
      <point x="505" y="-25"/>
      <point x="633" y="23"/>
      <point x="773" y="134" type="curve"/>
      <point x="773" y="78"/>
      <point x="784" y="28"/>
      <point x="790" y="0" type="curve"/>
    </contour>
    <contour>
      <point x="797" y="351" type="line"/>
      <point x="669" y="223"/>
      <point x="590" y="203"/>
      <point x="508" y="203" type="curve" smooth="yes"/>
      <point x="438" y="203"/>
      <point x="398" y="246"/>
      <point x="398" y="299" type="curve" smooth="yes"/>
      <point x="398" y="308"/>
      <point x="399" y="317"/>
      <point x="401" y="326" type="curve" smooth="yes"/>
      <point x="417" y="391"/>
      <point x="471" y="438"/>
      <point x="612" y="452" type="curve" smooth="yes"/>
      <point x="665" y="458"/>
      <point x="786" y="469"/>
      <point x="827" y="470" type="curve"/>
    </contour>
  </outline>
</glyph>
<glyph name="LtnSmI" format="2">
  <advance width="625"/>
  <unicode hex="0069"/>
  <anchor x="260" y="0" name="H"/>
  <anchor x="335" y="-100" name="L"/>
  <anchor x="520" y="0" name="O"/>
  <anchor x="830" y="1000" name="R"/>
  <anchor x="535" y="1100" name="U"/>
  <outline>
    <contour>
      <point x="341" y="1010" type="line"/>
      <point x="341" y="877"/>
      <point x="290" y="698"/>
      <point x="252" y="547" type="curve" smooth="yes"/>
      <point x="213" y="390" type="line" smooth="yes"/>
      <point x="193" y="309"/>
      <point x="170" y="191"/>
      <point x="170" y="88" type="curve" smooth="yes"/>
      <point x="170" y="57"/>
      <point x="172" y="27"/>
      <point x="177" y="0" type="curve"/>
      <point x="472" y="0" type="line"/>
      <point x="463" y="39"/>
      <point x="459" y="82"/>
      <point x="459" y="126" type="curve" smooth="yes"/>
      <point x="459" y="217"/>
      <point x="475" y="310"/>
      <point x="486" y="358" type="curve" smooth="yes"/>
      <point x="531" y="546" type="line" smooth="yes"/>
      <point x="572" y="719"/>
      <point x="621" y="875"/>
      <point x="625" y="1010" type="curve"/>
    </contour>
    <contour>
      <point x="404" y="1341" type="curve" smooth="yes"/>
      <point x="404" y="1259"/>
      <point x="462" y="1197"/>
      <point x="548" y="1197" type="curve" smooth="yes"/>
      <point x="668" y="1197"/>
      <point x="759" y="1292"/>
      <point x="759" y="1403" type="curve" smooth="yes"/>
      <point x="759" y="1483"/>
      <point x="701" y="1544"/>
      <point x="614" y="1544" type="curve" smooth="yes"/>
      <point x="496" y="1544"/>
      <point x="404" y="1451"/>
    </contour>
  </outline>
</glyph>
<glyph name="LtnSmS" format="2">
  <advance width="1015"/>
  <unicode hex="0073"/>
  <anchor x="455" y="0" name="H"/>
  <anchor x="530" y="-100" name="L"/>
  <anchor x="745" y="1100" name="U"/>
  <outline>
    <contour>
      <point x="1058" y="952" type="line"/>
      <point x="990" y="990"/>
      <point x="854" y="1030"/>
      <point x="691" y="1030" type="curve" smooth="yes"/>
      <point x="457" y="1030"/>
      <point x="217" y="936"/>
      <point x="217" y="722" type="curve" smooth="yes"/>
      <point x="217" y="593"/>
      <point x="306" y="517"/>
      <point x="501" y="430" type="curve" smooth="yes"/>
      <point x="648" y="364"/>
      <point x="710" y="345"/>
      <point x="710" y="288" type="curve" smooth="yes"/>
      <point x="710" y="224"/>
      <point x="649" y="197"/>
      <point x="549" y="197" type="curve" smooth="yes"/>
      <point x="392" y="197"/>
      <point x="276" y="280"/>
      <point x="197" y="371" type="curve"/>
      <point x="72" y="129" type="line"/>
      <point x="143" y="68"/>
      <point x="319" y="-25"/>
      <point x="498" y="-25" type="curve" smooth="yes"/>
      <point x="767" y="-25"/>
      <point x="979" y="104"/>
      <point x="979" y="315" type="curve" smooth="yes"/>
      <point x="979" y="440"/>
      <point x="884" y="513"/>
      <point x="695" y="600" type="curve" smooth="yes"/>
      <point x="581" y="652"/>
      <point x="477" y="688"/>
      <point x="477" y="743" type="curve" smooth="yes"/>
      <point x="477" y="785"/>
      <point x="548" y="808"/>
      <point x="646" y="808" type="curve" smooth="yes"/>
      <point x="785" y="808"/>
      <point x="895" y="764"/>
      <point x="961" y="716" type="curve"/>
    </contour>
  </outline>
</glyph>
<glyph name="LtnSmU" format="2">
  <advance width="1257"/>
  <unicode hex="0075"/>
  <anchor x="455" y="0" name="H"/>
  <anchor x="530" y="-100" name="L"/>
  <anchor x="630" y="0" name="O"/>
  <anchor x="1448" y="1000" name="R"/>
  <anchor x="830" y="1100" name="U"/>
  <outline>
    <contour>
      <point x="1117" y="0" type="line"/>
      <point x="1113" y="29"/>
      <point x="1112" y="62"/>
      <point x="1112" y="100" type="curve" smooth="yes"/>
      <point x="1112" y="206"/>
      <point x="1131" y="341"/>
      <point x="1157" y="455" type="curve" smooth="yes"/>
      <point x="1212" y="689"/>
      <point x="1274" y="905"/>
      <point x="1282" y="1010" type="curve"/>
      <point x="993" y="1010" type="line"/>
      <point x="981" y="889"/>
      <point x="992" y="918"/>
      <point x="910" y="595" type="curve"/>
      <point x="835" y="427"/>
      <point x="618" y="205"/>
      <point x="537" y="205" type="curve" smooth="yes"/>
      <point x="491" y="205"/>
      <point x="462" y="236"/>
      <point x="462" y="308" type="curve" smooth="yes"/>
      <point x="462" y="405"/>
      <point x="536" y="663"/>
      <point x="549" y="712" type="curve" smooth="yes"/>
      <point x="583" y="847"/>
      <point x="605" y="935"/>
      <point x="610" y="1010" type="curve"/>
      <point x="323" y="1010" type="line"/>
      <point x="312" y="891"/>
      <point x="296" y="819"/>
      <point x="264" y="693" type="curve" smooth="yes"/>
      <point x="191" y="401" type="line" smooth="yes"/>
      <point x="173" y="330"/>
      <point x="165" y="267"/>
      <point x="165" y="214" type="curve" smooth="yes"/>
      <point x="165" y="55"/>
      <point x="252" y="-25"/>
      <point x="381" y="-25" type="curve" smooth="yes"/>
      <point x="545" y="-25"/>
      <point x="769" y="160"/>
      <point x="860" y="295" type="curve"/>
      <point x="850" y="227"/>
      <point x="842" y="53"/>
      <point x="842" y="0" type="curve"/>
    </contour>
  </outline>
</glyph>
<glyph name="LtnSmX" format="2">
  <advance width="1104"/>
  <unicode hex="0078"/>
  <anchor x="900" y="0" name="H"/>
  <anchor x="505" y="-100" name="L"/>
  <anchor x="730" y="1100" name="U"/>
  <outline>
    <contour>
      <point x="1040" y="0" type="line"/>
      <point x="860" y="133"/>
      <point x="655" y="882"/>
      <point x="524" y="1010" type="curve"/>
      <point x="186" y="1010" type="line"/>
      <point x="425" y="832"/>
      <point x="593" y="141"/>
      <point x="713" y="0" type="curve"/>
    </contour>
    <contour>
      <point x="509" y="572" type="line"/>
      <point x="291" y="463"/>
      <point x="62" y="230"/>
      <point x="35" y="0" type="curve"/>
      <point x="335" y="0" type="line"/>
      <point x="336" y="156"/>
      <point x="470" y="390"/>
      <point x="658" y="477" type="curve"/>
    </contour>
    <contour>
      <point x="764" y="471" type="line"/>
      <point x="943" y="591"/>
      <point x="1197" y="808"/>
      <point x="1204" y="1010" type="curve"/>
      <point x="894" y="1010" type="line"/>
      <point x="894" y="852"/>
      <point x="773" y="665"/>
      <point x="616" y="571" type="curve"/>
    </contour>
  </outline>
</glyph>
<glyph name="LtnSmY" format="2">
  <advance width="1041"/>
  <unicode hex="0079"/>
  <anchor x="810" y="-100" name="L"/>
  <anchor x="1325" y="1000" name="R"/>
  <anchor x="640" y="1100" name="U"/>
  <outline>
    <contour>
      <point x="847" y="1010" type="line"/>
      <point x="851" y="994"/>
      <point x="852" y="977"/>
      <point x="852" y="958" type="curve" smooth="yes"/>
      <point x="852" y="786"/>
      <point x="713" y="473"/>
      <point x="596" y="260" type="curve"/>
      <point x="596" y="478"/>
      <point x="503" y="877"/>
      <point x="403" y="1010" type="curve"/>
      <point x="120" y="1010" type="line"/>
      <point x="259" y="811"/>
      <point x="401" y="401"/>
      <point x="409" y="-18" type="curve"/>
      <point x="283" y="-207"/>
      <point x="183" y="-250"/>
      <point x="114" y="-250" type="curve" smooth="yes"/>
      <point x="48" y="-250"/>
      <point x="-33" y="-201"/>
      <point x="-63" y="-165" type="curve"/>
      <point x="-195" y="-381" type="line"/>
      <point x="-136" y="-435"/>
      <point x="-13" y="-465"/>
      <point x="78" y="-465" type="curve" smooth="yes"/>
      <point x="260" y="-465"/>
      <point x="447" y="-385"/>
      <point x="684" y="0" type="curve" smooth="yes"/>
      <point x="919" y="381"/>
      <point x="1116" y="766"/>
      <point x="1116" y="960" type="curve" smooth="yes"/>
      <point x="1116" y="978"/>
      <point x="1114" y="995"/>
      <point x="1110" y="1010" type="curve"/>
    </contour>
  </outline>
</glyph>
<glyph name="RtCurlyBrac" format="2">
  <advance width="1020"/>
  <unicode hex="007D"/>
  <outline>
    <contour>
      <point x="442" y="1395" type="line"/>
      <point x="513" y="1366"/>
      <point x="611" y="1344"/>
      <point x="611" y="1296" type="curve" smooth="yes"/>
      <point x="611" y="1200"/>
      <point x="515" y="837"/>
      <point x="515" y="782" type="curve" smooth="yes"/>
      <point x="515" y="743"/>
      <point x="633" y="649"/>
      <point x="633" y="613" type="curve" smooth="yes"/>
      <point x="633" y="573"/>
      <point x="465" y="486"/>
      <point x="429" y="441" type="curve" smooth="yes"/>
      <point x="403" y="407"/>
      <point x="300" y="-59"/>
      <point x="255" y="-99" type="curve" smooth="yes"/>
      <point x="230" y="-121"/>
      <point x="97" y="-158"/>
      <point x="25" y="-177" type="curve"/>
      <point x="17" y="-406" type="line"/>
      <point x="160" y="-379"/>
      <point x="377" y="-330"/>
      <point x="439" y="-282" type="curve" smooth="yes"/>
      <point x="532" y="-211"/>
      <point x="666" y="374"/>
      <point x="696" y="406" type="curve" smooth="yes"/>
      <point x="734" y="446"/>
      <point x="947" y="559"/>
      <point x="947" y="616" type="curve" smooth="yes"/>
      <point x="947" y="676"/>
      <point x="796" y="783"/>
      <point x="796" y="819" type="curve" smooth="yes"/>
      <point x="796" y="880"/>
      <point x="896" y="1288"/>
      <point x="896" y="1453" type="curve" smooth="yes"/>
      <point x="896" y="1529"/>
      <point x="709" y="1591"/>
      <point x="549" y="1624" type="curve"/>
    </contour>
  </outline>
</glyph>
<glyph name="Tilde" format="2">
  <advance width="1155"/>
  <unicode hex="007E"/>
  <outline>
    <contour>
      <point x="190" y="342" type="line"/>
      <point x="207" y="390"/>
      <point x="249" y="431"/>
      <point x="327" y="431" type="curve" smooth="yes"/>
      <point x="502" y="431"/>
      <point x="676" y="327"/>
      <point x="906" y="327" type="curve" smooth="yes"/>
      <point x="1065" y="327"/>
      <point x="1206" y="507"/>
      <point x="1238" y="634" type="curve"/>
      <point x="1093" y="634" type="line"/>
      <point x="1074" y="588"/>
      <point x="1031" y="535"/>
      <point x="948" y="535" type="curve" smooth="yes"/>
      <point x="712" y="535"/>
      <point x="580" y="639"/>
      <point x="359" y="639" type="curve" smooth="yes"/>
      <point x="203" y="639"/>
      <point x="75" y="462"/>
      <point x="45" y="342" type="curve"/>
    </contour>
  </outline>
</glyph>
<glyph name="CombAcute" format="2">
  <unicode hex="0301"/>
  <anchor x="-251" y="1635" name="U"/>
  <anchor x="-325" y="1100" name="_U"/>
  <outline>
    <contour>
      <point x="-165" y="1584" type="line"/>
      <point x="-523" y="1188" type="line"/>
      <point x="-283" y="1188" type="line"/>
      <point x="204" y="1584" type="line"/>
    </contour>
  </outline>
</glyph>
<glyph name="CombTilde" format="2">
  <unicode hex="0303"/>
  <anchor x="-355" y="1490" name="U"/>
  <anchor x="-390" y="1100" name="_U"/>
  <outline>
    <contour>
      <point x="-687" y="1178" type="line"/>
      <point x="-673" y="1232"/>
      <point x="-628" y="1271"/>
      <point x="-584" y="1271" type="curve" smooth="yes"/>
      <point x="-546" y="1271"/>
      <point x="-498" y="1247"/>
      <point x="-437" y="1217" type="curve" smooth="yes"/>
      <point x="-375" y="1187"/>
      <point x="-327" y="1168"/>
      <point x="-265" y="1168" type="curve" smooth="yes"/>
      <point x="-129" y="1168"/>
      <point x="-13" y="1294"/>
      <point x="30" y="1465" type="curve"/>
      <point x="-125" y="1465" type="line"/>
      <point x="-138" y="1415"/>
      <point x="-190" y="1373"/>
      <point x="-235" y="1373" type="curve" smooth="yes"/>
      <point x="-272" y="1373"/>
      <point x="-306" y="1399"/>
      <point x="-366" y="1423" type="curve" smooth="yes"/>
      <point x="-438" y="1452"/>
      <point x="-498" y="1475"/>
      <point x="-563" y="1475" type="curve" smooth="yes"/>
      <point x="-695" y="1475"/>
      <point x="-802" y="1336"/>
      <point x="-842" y="1178" type="curve"/>
    </contour>
  </outline>
</glyph>
